<svg xmlns="http://www.w3.org/2000/svg" xmlns:svg="http://www.w3.org/2000/svg" id="svg2" width="849.147" height="393.016" version="1.1" viewBox="0 0 796.075 368.453"><defs id="defs4"><clipPath id="clipPath8099" clipPathUnits="userSpaceOnUse"><path id="path8101" d="m 0,551.986 530.973,0 L 530.973,0 0,0 0,551.986 Z"/></clipPath></defs><metadata id="metadata7"/><g id="layer1" transform="translate(58.626411,-64.395462)"><text style="font-style:normal;font-variant:normal;font-weight:700;font-stretch:normal;font-size:17.5px;line-height:125%;font-family:Arial;-inkscape-font-specification:'Arial Bold';text-align:end;letter-spacing:0;word-spacing:0;writing-mode:lr-tb;text-anchor:end;fill:#000;fill-opacity:1;stroke:none;stroke-width:1px;stroke-linecap:butt;stroke-linejoin:miter;stroke-opacity:1" id="text8675" x="162.339" y="133.434" xml:space="preserve"><tspan id="tspan8677" x="162.339" y="133.434" style="font-size:20px">Upstream</tspan><tspan id="tspan8705" x="162.339" y="155.974" style="font-style:normal;font-variant:normal;font-weight:400;font-stretch:normal;font-family:Arial;-inkscape-font-specification:Arial;text-align:end;text-anchor:end">github.com/Roshanjossey/</tspan><tspan style="font-style:normal;font-variant:normal;font-weight:400;font-stretch:normal;font-family:Arial;-inkscape-font-specification:Arial;text-align:end;text-anchor:end" id="tspan8709" x="162.339" y="177.849">first-contributions</tspan></text><text style="font-style:normal;font-variant:normal;font-weight:700;font-stretch:normal;font-size:17.5px;line-height:125%;font-family:Arial;-inkscape-font-specification:'Arial Bold';text-align:start;letter-spacing:0;word-spacing:0;writing-mode:lr-tb;text-anchor:start;fill:#000;fill-opacity:1;stroke:none;stroke-width:1px;stroke-linecap:butt;stroke-linejoin:miter;stroke-opacity:1" id="text8675-0" x="520.981" y="133.536" xml:space="preserve"><tspan id="tspan8677-7" x="520.981" y="133.536">Origin</tspan><tspan id="tspan8707" x="520.981" y="155.411" style="font-style:normal;font-variant:normal;font-weight:400;font-stretch:normal;font-family:Arial;-inkscape-font-specification:Arial">github.com/Your-Name/</tspan><tspan style="font-style:normal;font-variant:normal;font-weight:400;font-stretch:normal;font-family:Arial;-inkscape-font-specification:Arial" id="tspan8711" x="520.981" y="177.286">first-contributions/</tspan></text><text style="font-style:normal;font-variant:normal;font-weight:700;font-stretch:normal;font-size:17.5px;line-height:125%;font-family:Arial;-inkscape-font-specification:'Arial Bold';text-align:end;letter-spacing:0;word-spacing:0;writing-mode:lr-tb;text-anchor:end;fill:#000;fill-opacity:1;stroke:none;stroke-width:1px;stroke-linecap:butt;stroke-linejoin:miter;stroke-opacity:1" id="text8675-1" x="399.549" y="159.505" xml:space="preserve"><tspan style="font-style:normal;font-variant:normal;font-weight:400;font-stretch:normal;font-family:Arial;-inkscape-font-specification:Arial;text-align:end;text-anchor:end" id="tspan8742" x="399.549" y="159.505">Pull Requst</tspan></text><text style="font-style:normal;font-variant:normal;font-weight:700;font-stretch:normal;font-size:17.5px;line-height:125%;font-family:Arial;-inkscape-font-specification:'Arial Bold';text-align:start;letter-spacing:0;word-spacing:0;writing-mode:lr-tb;text-anchor:start;fill:#000;fill-opacity:1;stroke:none;stroke-width:1px;stroke-linecap:butt;stroke-linejoin:miter;stroke-opacity:1" id="text8746" x="309.143" y="95.219" xml:space="preserve"><tspan id="tspan8748" x="309.143" y="95.219" style="font-style:normal;font-variant:normal;font-weight:400;font-stretch:normal;font-family:Arial;-inkscape-font-specification:Arial">Code Review/</tspan><tspan id="tspan8750" x="309.143" y="117.094" style="font-style:normal;font-variant:normal;font-weight:400;font-stretch:normal;font-family:Arial;-inkscape-font-specification:Arial">Merge</tspan></text><text style="font-style:normal;font-variant:normal;font-weight:700;font-stretch:normal;font-size:17.5px;line-height:125%;font-family:Arial;-inkscape-font-specification:'Arial Bold';text-align:start;letter-spacing:0;word-spacing:0;writing-mode:lr-tb;text-anchor:start;fill:#000;fill-opacity:1;stroke:none;stroke-width:1px;stroke-linecap:butt;stroke-linejoin:miter;stroke-opacity:1" id="text8752" x="234.286" y="258.944" xml:space="preserve"><tspan id="tspan8754" x="234.286" y="258.944" style="font-style:normal;font-variant:normal;font-weight:400;font-stretch:normal;font-family:Arial;-inkscape-font-specification:Arial">fetch</tspan></text><text style="font-style:normal;font-variant:normal;font-weight:700;font-stretch:normal;font-size:17.5px;line-height:125%;font-family:Arial;-inkscape-font-specification:'Arial Bold';text-align:start;letter-spacing:0;word-spacing:0;writing-mode:lr-tb;text-anchor:start;fill:#000;fill-opacity:1;stroke:none;stroke-width:1px;stroke-linecap:butt;stroke-linejoin:miter;stroke-opacity:1" id="text8752-6" x="412.119" y="261.407" xml:space="preserve"><tspan id="tspan8754-4" x="412.119" y="261.407" style="font-style:normal;font-variant:normal;font-weight:400;font-stretch:normal;font-family:Arial;-inkscape-font-specification:Arial">push</tspan></text><path style="color:#000;font-style:normal;font-variant:normal;font-weight:400;font-stretch:normal;font-size:medium;line-height:normal;font-family:sans-serif;text-indent:0;text-align:start;text-decoration:none;text-decoration-line:none;text-decoration-style:solid;text-decoration-color:#000;letter-spacing:normal;word-spacing:normal;text-transform:none;direction:ltr;block-progression:tb;writing-mode:lr-tb;baseline-shift:baseline;text-anchor:start;white-space:normal;clip-rule:nonzero;display:inline;overflow:visible;visibility:visible;opacity:1;isolation:auto;mix-blend-mode:normal;color-interpolation:sRGB;color-interpolation-filters:linearRGB;solid-color:#000;solid-opacity:1;fill:#000;fill-opacity:1;fill-rule:nonzero;stroke:none;stroke-width:8.68957615;stroke-linecap:butt;stroke-linejoin:miter;stroke-miterlimit:4;stroke-dasharray:none;stroke-dashoffset:0;stroke-opacity:1;color-rendering:auto;image-rendering:auto;shape-rendering:auto;text-rendering:auto;enable-background:accumulate" id="rect8774" d="m 306.00891,115.13979 0,10.7484 94.68437,0 0,1.89923 0,3.2206 -94.68437,0 0,10.7484 c -2.96089,-2.21768 -5.92158,-4.43578 -8.88234,-6.65373 l -8.88167,-6.65459 8.88167,-6.65458 z"/><g id="g8905" transform="translate(0,3.2142868)"><circle id="path8648" cx="227.857" cy="145.934" r="53.571" style="opacity:1;fill:none;fill-opacity:1;stroke:#8f5999;stroke-width:6;stroke-linejoin:miter;stroke-miterlimit:4;stroke-dasharray:none;stroke-opacity:1"/><g style="fill:#8f5999;fill-opacity:.99607843;fill-rule:evenodd;stroke:none;stroke-width:1" id="Octicons" transform="matrix(3.6785715,0,0,3.6785715,205.78572,116.50507)"><g style="fill:#8f5999;fill-opacity:.99607843" id="repo"><path style="fill:#8f5999;fill-opacity:.99607843" id="Shape" d="M 4,9 3,9 3,8 4,8 4,9 4,9 Z M 4,6 3,6 3,7 4,7 4,6 4,6 Z M 4,4 3,4 3,5 4,5 4,4 4,4 Z M 4,2 3,2 3,3 4,3 4,2 4,2 Z m 8,-1 0,12 c 0,0.55 -0.45,1 -1,1 L 6,14 6,16 4.5,14.5 3,16 3,14 1,14 C 0.45,14 0,13.55 0,13 L 0,1 C 0,0.45 0.45,0 1,0 l 10,0 c 0.55,0 1,0.45 1,1 l 0,0 z m -1,10 -10,0 0,2 2,0 0,-1 3,0 0,1 5,0 0,-2 0,0 z m 0,-10 -9,0 0,9 9,0 0,-9 0,0 z"/></g></g></g><g id="g8911" transform="translate(0,-3.2142868)"><circle id="path8648-7" cx="460" cy="152.362" r="53.571" style="opacity:1;fill:none;fill-opacity:1;stroke:#64b3b3;stroke-width:6;stroke-linejoin:miter;stroke-miterlimit:4;stroke-dasharray:none;stroke-opacity:1"/><g style="fill:#64b3b3;fill-opacity:1;fill-rule:evenodd;stroke:none;stroke-width:1" id="Octicons-7" transform="matrix(3.6785715,0,0,3.6785715,437.9286,122.93364)"><g style="fill:#64b3b3;fill-opacity:1" id="repo-3"><path style="fill:#64b3b3;fill-opacity:1" id="Shape-0" d="M 4,9 3,9 3,8 4,8 4,9 4,9 Z M 4,6 3,6 3,7 4,7 4,6 4,6 Z M 4,4 3,4 3,5 4,5 4,4 4,4 Z M 4,2 3,2 3,3 4,3 4,2 4,2 Z m 8,-1 0,12 c 0,0.55 -0.45,1 -1,1 L 6,14 6,16 4.5,14.5 3,16 3,14 1,14 C 0.45,14 0,13.55 0,13 L 0,1 C 0,0.45 0.45,0 1,0 l 10,0 c 0.55,0 1,0.45 1,1 l 0,0 z m -1,10 -10,0 0,2 2,0 0,-1 3,0 0,1 5,0 0,-2 0,0 z m 0,-10 -9,0 0,9 9,0 0,-9 0,0 z"/></g></g></g><text style="font-style:normal;font-variant:normal;font-weight:700;font-stretch:normal;font-size:17.5px;line-height:125%;font-family:Arial;-inkscape-font-specification:'Arial Bold';text-align:start;letter-spacing:0;word-spacing:0;writing-mode:lr-tb;text-anchor:start;fill:#000;fill-opacity:1;stroke:none;stroke-width:1px;stroke-linecap:butt;stroke-linejoin:miter;stroke-opacity:1" id="text8675-2" x="316.695" y="432.614" xml:space="preserve"><tspan id="tspan8677-3" x="316.695" y="432.614" style="font-size:20px">Local</tspan></text><g id="g8929" transform="translate(18.309671,-50)"><circle id="path8648-4" cx="325.714" cy="400.934" r="53.571" style="opacity:1;fill:none;fill-opacity:1;stroke:teal;stroke-width:6;stroke-linejoin:miter;stroke-miterlimit:4;stroke-dasharray:none;stroke-opacity:1"/><g style="fill:teal;fill-opacity:1;fill-rule:evenodd;stroke:none;stroke-width:1" id="Octicons-7-2" transform="matrix(3.6785715,0,0,3.6785715,303.64287,371.50508)"><g style="fill:teal;fill-opacity:1" id="repo-3-8"><path style="fill:teal;fill-opacity:1" id="Shape-0-1" d="M 4,9 3,9 3,8 4,8 4,9 4,9 Z M 4,6 3,6 3,7 4,7 4,6 4,6 Z M 4,4 3,4 3,5 4,5 4,4 4,4 Z M 4,2 3,2 3,3 4,3 4,2 4,2 Z m 8,-1 0,12 c 0,0.55 -0.45,1 -1,1 L 6,14 6,16 4.5,14.5 3,16 3,14 1,14 C 0.45,14 0,13.55 0,13 L 0,1 C 0,0.45 0.45,0 1,0 l 10,0 c 0.55,0 1,0.45 1,1 l 0,0 z m -1,10 -10,0 0,2 2,0 0,-1 3,0 0,1 5,0 0,-2 0,0 z m 0,-10 -9,0 0,9 9,0 0,-9 0,0 z"/></g></g></g><path style="color:#000;font-style:normal;font-variant:normal;font-weight:400;font-stretch:normal;font-size:medium;line-height:normal;font-family:sans-serif;text-indent:0;text-align:start;text-decoration:none;text-decoration-line:none;text-decoration-style:solid;text-decoration-color:#000;letter-spacing:normal;word-spacing:normal;text-transform:none;direction:ltr;block-progression:tb;writing-mode:lr-tb;baseline-shift:baseline;text-anchor:start;white-space:normal;clip-rule:nonzero;display:inline;overflow:visible;visibility:visible;opacity:.5;isolation:auto;mix-blend-mode:normal;color-interpolation:sRGB;color-interpolation-filters:linearRGB;solid-color:#000;solid-opacity:1;fill:#000;fill-opacity:1;fill-rule:nonzero;stroke:none;stroke-width:8.68957615;stroke-linecap:butt;stroke-linejoin:miter;stroke-miterlimit:4;stroke-dasharray:none;stroke-dashoffset:0;stroke-opacity:1;color-rendering:auto;image-rendering:auto;shape-rendering:auto;text-rendering:auto;enable-background:accumulate" id="rect8774-0" d="m 306.0089,151.62532 0,10.7484 94.68437,0 0,1.89923 0,3.2206 -94.68437,0 0,10.7484 c -2.96089,-2.21768 -5.92158,-4.43578 -8.88234,-6.65373 l -8.88166,-6.65459 8.88166,-6.65458 z"/><path style="color:#000;font-style:normal;font-variant:normal;font-weight:400;font-stretch:normal;font-size:medium;line-height:normal;font-family:sans-serif;text-indent:0;text-align:start;text-decoration:none;text-decoration-line:none;text-decoration-style:solid;text-decoration-color:#000;letter-spacing:normal;word-spacing:normal;text-transform:none;direction:ltr;block-progression:tb;writing-mode:lr-tb;baseline-shift:baseline;text-anchor:start;white-space:normal;clip-rule:nonzero;display:inline;overflow:visible;visibility:visible;opacity:1;isolation:auto;mix-blend-mode:normal;color-interpolation:sRGB;color-interpolation-filters:linearRGB;solid-color:#000;solid-opacity:1;fill:#000;fill-opacity:1;fill-rule:nonzero;stroke:none;stroke-width:8.68957615;stroke-linecap:butt;stroke-linejoin:miter;stroke-miterlimit:4;stroke-dasharray:none;stroke-dashoffset:0;stroke-opacity:1;color-rendering:auto;image-rendering:auto;shape-rendering:auto;text-rendering:auto;enable-background:accumulate" id="rect8774-0-1" d="m 436.98741,226.79098 -7.60026,-7.60028 -66.95196,66.95196 -1.34296,-1.34296 -2.27731,-2.27731 66.95196,-66.95196 -7.60027,-7.60025 c 3.6618,-0.52554 7.32376,-1.05062 10.98566,-1.57588 l 10.98579,-1.57477 -1.57478,10.98578 z"/><path style="color:#000;font-style:normal;font-variant:normal;font-weight:400;font-stretch:normal;font-size:medium;line-height:normal;font-family:sans-serif;text-indent:0;text-align:start;text-decoration:none;text-decoration-line:none;text-decoration-style:solid;text-decoration-color:#000;letter-spacing:normal;word-spacing:normal;text-transform:none;direction:ltr;block-progression:tb;writing-mode:lr-tb;baseline-shift:baseline;text-anchor:start;white-space:normal;clip-rule:nonzero;display:inline;overflow:visible;visibility:visible;opacity:1;isolation:auto;mix-blend-mode:normal;color-interpolation:sRGB;color-interpolation-filters:linearRGB;solid-color:#000;solid-opacity:1;fill:#000;fill-opacity:1;fill-rule:nonzero;stroke:none;stroke-width:8.68957615;stroke-linecap:butt;stroke-linejoin:miter;stroke-miterlimit:4;stroke-dasharray:none;stroke-dashoffset:0;stroke-opacity:1;color-rendering:auto;image-rendering:auto;shape-rendering:auto;text-rendering:auto;enable-background:accumulate" id="rect8774-0-1-1" d="m 307.26155,282.99202 7.60027,-7.60026 -66.95196,-66.95196 1.34297,-1.34296 2.2773,-2.27731 66.95196,66.95196 7.60027,-7.60028 c 0.52552,3.6618 1.05062,7.32376 1.57586,10.98567 l 1.57477,10.98578 -10.98577,-1.57478 z"/><rect style="opacity:1;fill:none;fill-opacity:1;stroke:#64b3b3;stroke-width:3;stroke-linejoin:miter;stroke-miterlimit:4;stroke-dasharray:6,6;stroke-dashoffset:1.84264958;stroke-opacity:1" id="rect8993" width="793.075" height="167.791" x="-57.126" y="65.895" ry="20.078"/><path id="path8109-4-9" d="m 707.75935,186.64407 c -11.17598,0 -20.23855,9.06056 -20.23855,20.23855 0,8.94159 5.79896,16.52786 13.84036,19.20397 1.01146,0.18735 1.38279,-0.43903 1.38279,-0.97359 0,-0.48226 -0.0188,-2.07687 -0.0275,-3.768 -5.63038,1.22428 -6.81846,-2.38789 -6.81846,-2.38789 -0.92064,-2.33895 -2.24713,-2.96131 -2.24713,-2.96131 -1.83624,-1.25611 0.13842,-1.23031 0.13842,-1.23031 2.03229,0.14277 3.1024,2.08593 3.1024,2.08593 1.80507,3.0937 4.73455,2.1992 5.88945,1.68208 0.18199,-1.30773 0.70614,-2.20088 1.28493,-2.70627 -4.49526,-0.51143 -9.22076,-2.24713 -9.22076,-10.00198 0,-2.20925 0.7906,-4.015 2.08526,-5.43232 -0.21014,-0.50974 -0.90288,-2.56819 0.19639,-5.3559 0,0 1.69951,-0.5436 5.56671,2.07486 1.61438,-0.44842 3.34572,-0.6733 5.06567,-0.68134 1.71995,0.008 3.45263,0.23292 5.07003,0.68134 3.86284,-2.61846 5.56,-2.07486 5.56,-2.07486 1.10161,2.78771 0.40887,4.84616 0.19874,5.3559 1.29767,1.41732 2.08258,3.22307 2.08258,5.43232 0,7.77362 -4.73456,9.48485 -9.24121,9.98589 0.72592,0.62806 1.37274,1.8597 1.37274,3.74789 0,2.70795 -0.0231,4.88737 -0.0231,5.55397 0,0.53891 0.36397,1.16965 1.38984,0.97125 8.03737,-2.67913 13.82896,-10.26272 13.82896,-19.20163 0,-11.17799 -9.06123,-20.23855 -20.23855,-20.23855" style="fill:#1b1817;fill-opacity:1;fill-rule:evenodd;stroke:none"/></g></svg>